<?xml version="1.0" encoding="UTF-8"?>
<svg id="Layer_2" data-name="Layer 2" xmlns="http://www.w3.org/2000/svg" viewBox="0 0 512 200">
  <defs>
    <style>
      .cls-1 {
        fill: #ca4b34;
      }

      .cls-2 {
        fill: #2575ab;
      }

      .cls-3 {
        fill: #fafafa;
      }

      .cls-4 {
        fill: #f48136;
      }
    </style>
  </defs>
  <g id="Logo_Final" data-name="Logo Final">
    <rect id="Background" class="cls-3" width="512" height="200"/>
    <g id="BFF_TRIP" data-name="BFF TRIP">
      <path class="cls-1" d="M51.47,87.17h29.05c6.23,0,10.86,1.52,14.06,4.13,3.45,2.86,5.22,6.74,5.22,11.53,0,5.98-3.12,9.77-8.42,11.79v.25c6.57,2.02,10.78,7.58,10.78,14.73,0,6.06-2.19,10.44-6.15,13.47-3.54,2.78-8.5,4.29-14.82,4.29h-29.72v-60.2ZM78.33,111c4.29,0,7.24-2.11,7.24-6.06s-2.78-5.98-7.16-5.98h-12.21v12.04h12.12ZM79.5,135.41c4.88,0,7.91-2.78,7.91-7.07,0-4.8-3.54-7.24-8.08-7.24h-13.13v14.31h13.3Z"/>
      <path class="cls-1" d="M113.8,87.17h44.79v12.55h-29.89v12.21h25.01v12.04h-25.01v23.41h-14.9v-60.2Z"/>
      <path class="cls-1" d="M170.33,87.17h44.79v12.55h-29.89v12.21h25.01v12.04h-25.01v23.41h-14.9v-60.2Z"/>
      <path class="cls-1" d="M250.05,99.8h-17.51v-12.63h50.1v12.63h-17.68v47.57h-14.9v-47.57Z"/>
      <path class="cls-1" d="M294.03,87.17h28.8c11.96,0,21.05,6.15,21.05,17.34,0,6.99-3.45,12.12-10.44,14.57v.25c5.22,1.77,7.91,5.05,8.76,11.03,1.26,7.91.42,15.49,2.53,16.25v.76h-14.48c-1.6-.93-1.35-8-2.27-13.98-.76-5.56-3.62-8.59-10.02-8.59h-9.01v22.57h-14.9v-60.2ZM320.14,113.77c5.89,0,8.93-2.78,8.93-7.33s-2.86-7.49-8.59-7.49h-11.53v14.82h11.2Z"/>
      <path class="cls-1" d="M355.29,104.23h14.9v43.14h-14.9v-43.14Z"/>
      <path class="cls-1" d="M380.78,87.17h27.11c7.33,0,12.71,2.02,16.42,5.56,3.87,3.62,6.06,8.76,6.06,14.82,0,11.53-8,19.7-20.38,19.7h-14.06v20.12h-15.16v-60.2ZM406.96,115.46c5.39,0,8.42-3.2,8.42-8s-3.12-7.75-8.42-7.75h-11.03v15.74h11.03Z"/>
      <path class="cls-1" d="M376.7,68.39c-.13-.03-.4,0-.47-.11-.7-1.1-1.82-.72-1.91-.8-.2-.19-.23-.06-.33-.2-.17-.23-.3-.34-.42-.41-.53-.31-.57-.16-.63-.32-.02-.05-.12-.05-.15-.11-.03-.08-.14-.14-.18-.14-.06,0-.03-.06-.06-.09-.06-.08-.51-.32-.93-.38-.11-.01-.21.02-.3-.05-.86-.8-1.29-.52-1.47-.53-.15-.01-.3.04-.43.1-.08.04-.09.02-.53-.32-.07-.06-.18-.09-.23-.17-.14-.18-.51-.27-.76-.28-.59,0-.6.23-.82.04-.24-.21-.71-.28-.92-.26-.78.08-1.02.6-1.14.4-.35-.57-1.47-.52-1.77-.29-.07.05-.14.09-.22.13-.02.01-.04.03-.07,0-.4-.32-1.45-.32-1.99.25-.14.15-.18.07-.71-.21-.35-.19-.48-.06-.61-.11.03-.08.03-.08-.05-.12-.15-.06-.03-.16-.25-.2-.09-.02-.17-.16-.13-.24.06-.11.07-.22.05-.34-.04-.21.15-.14.1-.34-.05-.19.06-.36.26-.4.45-.08.75-.27.84-.37.09-.1.14-.4.16-.54.02-.16-.16-.1-.21-.11-.06-.01-.08-.04-.05-.09.05-.07.04-.15.05-.22,0-.02,0-.04-.03-.05-.09-.04-.16-.12-.25-.17-.07-.04-.14-.08-.21-.13-.17-.11-.27.04-.34.01-.09-.03-.18.01-.26.04-.29.11-.49.46-.66.71-.04.07-.07.09-.17.47-.03.13,0,.25.02.37.02.1.2.16.32.13.14-.04.26.03.39.02.07,0,.07.02.07.06,0,.3-.05.19-.07.44,0,.03,0,.07-.01.1-.2.37.06.56-.22.63-.1.02-.15.1-.28.12-.11.02-.19.11-.28.21-.17.21-.21.02-.29.12-.07.1-.18.02-.28.05-.56.13-.81.51-.85.55-.02.02-.04.05-.07.03-.06-.04-.13-.04-.19-.08-.06-.04-.82-.84-1.83-.09-.16.12-.08-.04-.64-.15-.46-.09-1.11.09-1.3.56-.03.07-.08.13-.13.2-.32-.41-1.04-.51-1.34-.36-.16.08-.62.26-.74.48-.01.02-.34-.08-.41-.08-.69-.03-1.36.59-1.61,1.01-.01.03-.03.02-.05.02-.15-.03-.3-.04-.44-.08-.61-.16-1.2.31-1.34.56-.16.29-.91.04-1.18.67-.16.36-.79.2-1.23,1.02-.04.08-.07.19-.18.23-.07.03-.14.09-.21.1-.1,0-.2,0-.3,0-.48.01-1.15.45-1.3.94-.02.08-.05.16-.14.21-.04.02-1.01.15-1.44,1.02-.21.44-.29,1.05.01,1.47.02.03.02.07,0,.11-.12.24-.02.53,0,.62.2.66.67.85,1.12,1.23.12.1.28.14.41.22.12.07.22.16.36.19.04,0,.34.04.51.03l14.67,15.75s.03.05.05.07c.13.13.11.15.25.66.06.22-.12.22-.03.38.04.08.03.12.09.28.19.51.06.48.06.57.03.47-.52.19-.25,1.39.02.09.02.18.08.25.1.12.23.21.39.23.2.03.4.04.6.01.05,0,.1-.05.13-.03.05.04.1-.02.14.02.04.04.1.04.15.07.15.09.08.16.21.26.22.16.04.3.07.49.01.11-.02.17,0,.36.04.24.25.54.31.67.05.1.11.18.23.2.03,0,.06.02.04.06-.04.18.04.53-.1.65.02-.01-.25.48-.29.51-.2.18-.42.57-.44.63-.2.51-.48,0-.44.76.01.28.27.22.42.57.12.26.28.11.43.27.26.26.37.23.32.32,0,.02,0,.04,0,.06.03.36-.25,1.05-.1,1.14.39.21.66-.34.65-.58-.01-.42.59-.68.07-1.01-.11-.07-.07-.18-.1-.23-.23-.35-.22-.41-.3-.42-.04,0-.06-.03-.07-.07-.04-.17.19-.29.3-.36.1-.07.1-.1.41-.38.19-.17.46-.13.51-.15.17-.06.4.01.44.07.24.41.17.34.33.94.02.07.07.14.07.22.01.22.05.44.06.67,0,.08.08.11.08.18,0,.07-.03.14,0,.21.09.25.02.48.16.77.11.22.01.26.05.38.03.09.27.16.24.54-.01.14,0,.28.02.41.03.14.04.15.18.17.36.05.41-.28.58-.38.13-.08.23-.19.24-.37.02-.23-.04-.34-.27-.41-.16-.05-.02-.07-.13-.18-.2-.21-.09-.55-.12-.74-.02-.15.09-.31.06-.46-.07-.27.01-.07.01-.35,0-.26.04-.52,0-.77-.01-.07.11-.25-.26-.58-.12-.1-.03-.07-.1-.39-.04-.17-.04-.34-.1-.51-.11-.32.02-.06-.09-.39,0-.02-.15-.52-.2-.63-.03-.05-.06-.11-.06-.18,0-.18-.2-.4.05-.41.05,0,.09-.02.14-.04.08-.03.11-.1.16-.16.14-.19-.02-.37-.14-.38-.14-.02-.13-.17-.15-.2-.22-.3-.03-.49-.06-.64-.07-.38.35-.23.44-.22.04,0,.62.02.71-.16.24-.48.04-1.31-.16-1.36-.2-.05-.1-.25-.16-.29-.16-.08-.07-.2-.11-.27-.04-.08.03-.19.02-.54,0-.03.05-.21-.05-.21-.05,0-.04-.04-.03-.15.01-.19.02-.32.03-.4h.02s.01-.05.01-.05l12.1-18.21s.05.05.09.03c.11-.07.24-.08.37-.12.26-.08.51-.3.73-.46.41-.32,1.07-.81,1.12-1.49.04-.53-.14-.44-.06-.64.35-.81-.35-1.93-1.44-2.19ZM373.83,70.44l-.78.41.26-.58c.18.06.35.12.52.17ZM373.07,70.19c.06.02.13.04.19.06l-.34.67-.74.39.57-1.21c.17.06.3.08.32.09ZM367.59,73.33l.05.39h-.02s-.63,2.88-.63,2.88l-1.91,6.67c.21-.89.43-1.81.65-2.73l1.86-7.2ZM366.1,78.93c.52-2.26,1.01-4.47,1.4-6.23l.07.52-1.47,5.71ZM368.68,72.27l-.26,1.02-.12.07.28-.92.11-.16ZM368.61,72.3l.47-1.56-.37,1.41-.1.15ZM364.84,86.68l.1-.47.32-.73-.18.7-.24.5ZM365.02,86.4v.05s-.17.31-.17.31l.17-.36ZM363.55,89.5l.32-.68-.03.44-.28.37v-.14ZM363.48,89.45s.01-.04.02-.07v.02s-.02.04-.02.04ZM363.54,89.34v-.06c.1-.35.22-.76.34-1.21l.06-.21-.05.69-.27.63-.08.16ZM363.95,88.66l.27-.57.48-.95-.3,1.37-.49.66.04-.51ZM364.18,88.08l-.22.43v-.02s.9-2.08.9-2.08l-.09.43-.59,1.24ZM367.03,76.64l.87-3.02.33-.17-1.82,6.05.62-2.86ZM366.26,79.98l-2.05,6.84c.2-.79.42-1.66.65-2.58l2.01-7.01-.6,2.75ZM368.28,73.41l.13-.07-3.08,11.87-.34.78,1.3-5.98,1.98-6.61ZM365.12,86.2l7.04-14.83.74-.39-7.79,15.3.02-.08ZM365.17,85.98l.19-.75,5.75-13.32.97-.51-6.92,14.58ZM365.44,84.97l3.02-11.65,2.6-1.37-5.62,13.02ZM368.24,73.38l-.33.17.08-.28.5-.73-.25.84ZM367.86,73.59l-.13.07.19-.27-.06.2ZM367.84,73.64l-.68,2.36.49-2.26.18-.1ZM364.81,84.23l-.33,1.14.77-2.98c-.15.63-.3,1.24-.44,1.84ZM364.55,85.31c-.17.67-.33,1.31-.48,1.89l.02-.28h0s.46-1.61.46-1.61ZM366.15,80.51l-1.24,5.67-.94,2.17.07-.83,2.11-7.01ZM363.96,87.61c-.04.15-.08.3-.12.45l-.3,1.01.44-1.71-.02.26ZM363.51,88.99v-.04s.15-.52.15-.52l-.15.57ZM363.46,88.95l-.15.53.09-1.29.06.76ZM363.26,89.67l-.02.07-.02-.26.15-1.71v.14s-.11,1.76-.11,1.76ZM363.3,89.68l.17-.61v.05s-.17.69-.17.69v.03s0-.15,0-.15ZM363.51,89.58v.11s-.16.22-.16.22l.16-.33ZM363.57,89.7l.27-.36-.14,1.98-.13-1.62ZM363.78,91.36l.02-.07v.06s-.02.01-.02.01ZM363.74,91.34s0,0,0,0l.16-2.09.48-.64-.36,1.63-.29,1.1ZM364.44,88.54l.05-.06-.2.78.16-.72ZM364.46,88.44l.31-1.43.19-.37-.45,1.73-.05.07ZM365.05,86.46l7.91-15.52h0s-6.92,15.38-6.92,15.38l-1.47,1.96.47-1.82ZM372.72,70.08l-.6,1.25-.98.52.91-2.11c.21.16.46.27.66.34ZM371.13,69.38c.15-.04.28-.11.43-.14.07-.01.04-.01.27.28.06.07.12.14.19.2l-.94,2.17-2.62,1.38.28-1.09,1.85-2.69c.15,0,.26-.04.52-.1ZM369.51,69.3c.6.12.86.17,1.04.18l-1.77,2.57.61-2.36.12-.39ZM369.35,69.27s.07.01.11.02l-.1.39-.82,2.74-.5.73,1.12-3.9c.06,0,.12,0,.2.02ZM369.1,69.25l-1.15,4.01-.27.4-.06-.43,1.03-4.01c.21.05.32.03.45.03ZM368.61,69.21l-1.01,3.91-.07-.53c.39-1.79.68-3.09.76-3.49.13.05.23.09.32.12ZM367.2,68.79c.3-.15.35-.23.4-.17.06.06.13.11.19.17.06.07.13.13.2.16.1.05.18.08.26.12-.08.38-.36,1.65-.74,3.39l-.5-3.59c.07-.02.13-.05.19-.09ZM365.5,68.95s.04,0,.06,0c.45.08.96.08,1.41-.07l.52,3.69c-.48,2.19-1.13,5.09-1.79,7.94l-1.59,6.16,1.4-17.73ZM365.46,68.95l-1.39,17.67,1.24-17.68c.05,0,.1,0,.15,0ZM365.27,68.95l-1.28,18.15-.5,1.74-.07-.92.23-3.34,1.4-15.61c.08,0,.15,0,.22,0ZM363.4,87.63v-.11s.07-.82.07-.82l-.07.93ZM365.01,68.96l-1.21,13.47.94-13.47c.09,0,.18,0,.27,0ZM361.9,69.13c1.3-.08,1.32-.57,1.59-.62.05,0,.07.05.1.08.37.29.76.36,1.11.37l-1.09,15.6-.24,2.71-1.47-18.15ZM361.44,69.15c.08,0,.15,0,.23,0,.07,0,.13,0,.19,0l1.49,18.39-.15,1.72-1.75-20.09ZM361.4,69.15l1.77,20.33-.04.47-1.85-20.8s.08,0,.12,0ZM363.17,89.97l.02-.25v.13s-.02.12-.02.12ZM363.21,89.96h0s0,.02,0,.02v-.02ZM353.84,69.31s0,0,.01,0c.54-.02.91-.29,1.25-.62.16-.15.05.13.97.37.03,0,.44.05.58,0,.05-.02.3-.05.54-.06l.85,17.73-4.2-17.42ZM358.32,91.16s0-.04,0-.05l.08.12.04-.02-.13-.2s0-.03,0-.04c0-.03,0-.04-.02-.04l-.06-1.19.17.16.64,1.42-.35.47s-.04,0-.07-.05c-.07-.11-.17-.2-.2-.34-.01-.06-.12-.06-.1-.25ZM351.58,74.7s.01-.02.02-.02c0,0,0,0,.01-.01,0,0,0,0,0,0l-.03-.7,5.44,12.26.28,1.19-5.75-12.72h.03ZM351.48,74.53l-.02-.03.03.05h-.01ZM357.58,88.27l-.06-.29.3.66-.23-.37ZM358.16,89.25v.04s-.06-.13-.06-.13l.06.09ZM357.47,87.78l-.25-1.11.9,2.03.02.47-.18-.28-.5-1.11ZM357.34,87.35l-.22-.93.02.05.19.88ZM357.18,86.46l-.04-.2.86,2.03-.81-1.83ZM357.1,86.27l-.03-.06-.06-.24.03.08.05.22ZM356.98,86l-5.39-12.16-.03-.83,5.36,12.72.06.27ZM351.47,74.61l-.4-.15-.23-.55.61.63.03.06ZM351.5,74.67l5.86,12.95.11.47-1.69-2.66-4.68-10.91.4.15ZM358.15,90.84l.07.11s-.03.01-.04.02l-.03-.13ZM358.12,90.9l-.15-.36.11.18.04.18ZM356.38,87.95l.73.71.61,1.41-1.34-2.12ZM357.19,88.74l.55.54.31,1.33-.19-.3-.67-1.56ZM357.82,89.35l.36.35.06,1.19-.11-.18-.3-1.37ZM357.72,89.2l-.57-.56-1.27-2.97,1.62,2.54.23.99ZM355.63,85.2l-7.51-11.8,2.92,1.09,4.59,10.71ZM355.73,85.44l1.34,3.12-.78-.76-9.32-14.82,1.09.41,7.67,12.06ZM356.16,87.67l-.46-.45-9.42-14.5.62.23,9.26,14.72ZM356.25,87.82l1.57,2.5.22.52-2.25-3.46.45.44ZM358.22,89.68v-.17s.12.29.12.29l-.12-.12ZM358.18,89.64l-.37-.36-.2-.89.33.52.22.5v.23ZM358.21,89.39v-.07s.57.9.57.9l-.35-.34-.22-.49ZM358.2,89.24l-.02-.43.58,1.31-.56-.88ZM358.17,88.59l-.06-1.21.69,2.72-.64-1.51ZM358.09,86.94l-.8-16.71,1.56,19.87-.76-3.16ZM358.12,87.26l-.02-.08h0s.02.08.02.08ZM353.79,69.31l4.25,17.64v.02s-4.5-17.64-4.5-17.64c.08,0,.16-.01.24-.02ZM353.51,69.33l4.55,17.85.06,1.3-1.03-2.45-3.69-16.69s.07,0,.11-.01ZM353.35,69.35l3.64,16.47-.04-.09-3.8-16.35c.06-.01.13-.02.2-.03ZM352.42,69.56c.18-.03.35-.11.69-.17l3.75,16.11-5.31-12.6-.13-3.44c.28.1.72.16,1.01.1ZM350.72,69.8c.38-.3.3-.54.56-.4.03.02.06.03.1.04l.13,3.34-1.17-2.77c.13-.06.26-.13.38-.22ZM350.3,70.04l1.21,2.87.03.84-1.59-3.59c.12-.03.23-.07.35-.12ZM349.91,70.17l1.64,3.69.03.75-.27-.47-1.75-3.88c.12-.03.24-.06.36-.09ZM349.51,70.27l1.6,3.53-1.17-1.98-.64-1.49c.07-.02.14-.04.21-.06ZM349.12,70.38s.09-.03.14-.04l.51,1.2-.67-1.15s.01,0,.02,0ZM351.27,74.16l.13.28-.6-.63-.72-1.69,1.2,2.03ZM347.8,70.67c.22-.04.44,0,.67-.06.2-.06.39-.14.59-.21l.84,1.44.81,1.89-2.92-3.05s.01,0,.02,0ZM346.97,71.04c.31-.41.14-.3.27-.47.02-.02.04-.04.08-.03.08.03.17.04.25.07.05.02.1.04.15.05l3.04,3.17.26.61-2.93-1.09-1.32-2.07c.08-.07.14-.16.2-.24ZM346.69,71.34s.03-.02.04-.03l1.28,2.02-1.09-.41-.79-1.25c.24-.13.44-.25.55-.33ZM346.11,71.69l.76,1.2-.62-.23-.51-.78c.13-.06.26-.13.37-.19ZM345.7,71.9l.48.74-1.17-.44c.22-.08.46-.19.69-.3ZM343.57,74.07c.19-.33.38-.58.24-1.2-.01-.06.16-.24.22-.4.05-.14.16-.17.29-.14.14.03.37-.02.63-.1l1.27.47,9.35,14.39-5.22-5.09-6.8-7.87s.01-.03.02-.05ZM343.56,75.27c-.02-.08.02-.14.02-.21,0-.45-.13-.67-.06-.9l6.46,7.49-6.5-6.34s.07-.02.07-.04ZM343.98,75.85l6.33,6.18,7.37,8.54-13.7-14.71ZM350.66,82.36l5,4.88,2.41,3.71-7.41-8.59ZM360.07,93.48s.07.09.05.15c0,.02.01.05.01.08,0,.04-.04.08-.05.06-.06-.07-.13-.03-.18-.03-.02,0-.49.03-.66.12-.08.04-.19.09-.21,0-.07-.08.06-.31-.05-.5-.03-.05-.06-.48.04-.69.08-.16.13-.03.58.19.03.02.16.1.13.13-.08.08.06.12.08.29.03.22.22.05.28.19ZM359.38,91.86c.13.28.14.36.33.84.01.03-.01.06-.05.04,0,0-.3-.21-.44-.27-.27-.12-.04-.34-.28-.35-.02,0-.03-.02-.04-.03-.07-.03-.09-.1-.14-.15-.04-.03-.02-.07.02-.09.05-.02.08-.07.11-.11.05-.07-.01-.1-.06-.06,0,0-.01.01-.02.02l.27-.36-.61-1.35.37.36s.05.1.06.17c.03.19.13.36.16.55.01.12.06.02.09.21-.03,0-.05-.02-.08.01,0,.03.02.05.06.06.08.03.15.18.13.26-.05.17.08.15.13.25ZM361.97,93.28s.06-.06.12-.07c-.04.05-.07.07-.12.07ZM361.73,92.32s-.05.06-.11.04c-.09-.04-.21-.04-.29-.12-.01-.01-.03-.01-.05-.01-.28,0-.25.04-.41.12-.19.1-.12.33-.22.37-.03.01-.05.04-.05.07,0,.07-.02.15.03.22.01.02.02.04.02.06-.02.15.12.34-.01.33-.05,0-.11.02-.16-.04-.08-.1-.19-.11-.18-.19,0-.17-.17-.23-.2-.38-.01-.06-.02-.13.03-.18.02-.02.03-.06,0-.09-.03-.03-.05,0-.07.02-.03.02-.07.04-.09.08-.03.08-.09.07-.12,0,0,0-.37-.73-.41-.82-.34-.74-.22-.61-.26-.73-.04-.11-.08-.22-.1-.33-.03-.18-.06-.17-.09-.24l.03.03-.04-.06s-.02-.07-.02-.14c-.02,0-.03,0-.04,0l-1.68-21.33c.17,0,.34,0,.42.02.21.06.45.06.67.02.63-.1.96-.56,1.1-.43.51.49,1.17.55,1.82.55l1.86,20.89c-.04.06.04.2,0,.29-.04.11-.04.22-.05.32-.03.32-.06.64-.13.95-.2.89-.23.84-.31.81-.09-.04-.36-.23-.32.04.02.17.09.25.02.29-.03.02-.05-.01-.07-.03-.02-.02-.05-.04-.06-.07-.06-.1-.17.02-.15-.12.04-.34-.22-.32-.3-.2ZM363.46,93.42s0,.07.01.08c.08.06.06.16.07.24.04.22-.33.12-.39.09-.17-.07-.37-.03-.4-.09-.03-.05-.18,0-.14-.13.03-.08.04-.17.12-.23.06-.04.1-.1.08-.18-.02-.07.15-.24,0-.35-.08-.06.09-.18.1-.2.04,0,.07-.03.11-.03.14-.03.11.08.15.11.1.09.34.61.28.7ZM363.45,91.83c-.03-.07-.08-.09-.15-.06.03.1.16.21.08.34-.07.1-.12.32-.24.33-.12,0-.2.06-.3.11-.03-.09.04-.42.05-.45.04-.14,0-.31.14-.42.01-.01.03-.13,0-.2-.04-.09.05-.24.16-.29.03-.01.03-.02.02-.04-.02-.04,0-.03-.13-.02,0-.05,0-.09.03-.13.04-.05,0-.11,0-.17.01-.11.01-.21.05-.32,0-.02.02-.05.01-.07-.06-.14.07-.25.09-.36l.25-.34.14,1.73c-.07.19-.17.47-.22.35ZM364.05,90.31l.5-1.92,1.42-1.89-2.1,4.68.19-.87ZM366.08,86.34l4.79-6.39-7.02,11.36,2.23-4.97ZM364.39,90.51l6.76-10.94,4.43-5.91-11.19,16.85ZM375.79,72.26c.02.14,0,.72.08.96l-4.47,5.97,4.34-7.02s.05.07.05.1ZM375.22,71.07c-.04.42.33.83.49,1.05l-4.59,7.43-4.96,6.61,6.86-15.26.87-.46c.29.08.56.12.82.07.08-.02.11.01.15.07.15.27.38.29.36.48Z"/>
    </g>
    <g id="TAGLINE">
      <path class="cls-4" d="M50.36,167.87h8.56c5.56,0,9.29,4.01,9.29,10.16,0,3.54-1.23,6.37-3.48,8.08-1.57,1.18-3.59,1.82-6.12,1.82h-8.25v-20.07ZM58.25,183.75c3.26,0,4.94-2.05,4.94-5.73s-1.77-6.01-4.88-6.01h-2.98v11.73h2.92Z"/>
      <path class="cls-4" d="M69.87,167.87h4.58v3.7h-4.58v-3.7ZM69.87,173.56h4.58v14.37h-4.58v-14.37Z"/>
      <path class="cls-4" d="M75.76,183.27h4.32c.17,1.43,1.12,2.13,2.64,2.13,1.38,0,2.25-.5,2.25-1.43,0-1.29-1.74-1.43-3.65-1.77-2.5-.42-5.16-1.09-5.16-4.46,0-3.03,2.81-4.6,6.2-4.6,4.07,0,6.26,1.77,6.48,4.6h-4.21c-.17-1.29-1.04-1.68-2.3-1.68-1.12,0-1.99.42-1.99,1.32,0,1.01,1.63,1.15,3.45,1.49,2.53.42,5.5,1.07,5.5,4.74,0,3.14-2.78,4.77-6.54,4.77-4.21,0-6.85-1.94-6.99-5.11Z"/>
      <path class="cls-4" d="M90.27,180.78c0-4.32,2.97-7.61,7.52-7.61,3.9,0,6.4,2.27,6.82,5.5h-4.41c-.28-1.29-1.07-2.13-2.36-2.13-1.96,0-2.95,1.63-2.95,4.24s.98,4.18,2.95,4.18c1.43,0,2.3-.84,2.5-2.47h4.38c-.11,3.31-2.75,5.89-6.82,5.89-4.63,0-7.63-3.28-7.63-7.61Z"/>
      <path class="cls-4" d="M105.53,180.78c0-4.32,3.09-7.61,7.69-7.61s7.66,3.28,7.66,7.61-3.03,7.61-7.66,7.61-7.69-3.28-7.69-7.61ZM116.25,180.78c0-2.61-1.07-4.38-3.06-4.38s-3.03,1.77-3.03,4.38,1.04,4.35,3.03,4.35,3.06-1.74,3.06-4.35Z"/>
      <path class="cls-4" d="M120.69,173.56h4.71l1.96,6.48c.42,1.43.79,2.89.79,2.89h.06s.36-1.46.79-2.89l1.99-6.48h4.57l-4.97,14.37h-4.94l-4.97-14.37Z"/>
      <path class="cls-4" d="M135.36,180.72c0-4.29,3-7.58,7.38-7.58,2.05,0,3.68.67,4.91,1.8,1.71,1.57,2.55,4.07,2.53,6.99h-10.33c.28,1.94,1.35,3.14,3.23,3.14,1.21,0,1.99-.53,2.39-1.43h4.46c-.31,1.29-1.15,2.53-2.41,3.39-1.21.84-2.67,1.32-4.49,1.32-4.74,0-7.66-3.28-7.66-7.63ZM145.55,179.2c-.17-1.71-1.23-2.81-2.72-2.81-1.74,0-2.64,1.1-2.95,2.81h5.67Z"/>
      <path class="cls-4" d="M151.73,173.56h4.38v2.24h.08c1.01-1.71,2.19-2.47,3.93-2.47.42,0,.7.03.9.11v3.93h-.11c-2.81-.39-4.6.98-4.6,4.1v6.46h-4.58v-14.37Z"/>
      <path class="cls-4" d="M160.45,183.22h4.8v4.71h-4.8v-4.71Z"/>
      <path class="cls-4" d="M171.87,167.87h15.21v4.1h-10.24v3.59h8.78v3.87h-8.78v4.29h10.41v4.21h-15.38v-20.07Z"/>
      <path class="cls-4" d="M193.31,180.38l-4.52-6.82h5.22l2.13,3.7h.06l2.02-3.7h4.8l-4.27,6.76,4.88,7.61h-5.3l-2.36-4.29h-.06l-2.61,4.29h-5l5-7.55Z"/>
      <path class="cls-4" d="M204.93,173.56h4.38v1.74h.08c.98-1.29,2.39-2.16,4.35-2.16,3.82,0,6.15,3.28,6.15,7.61,0,4.66-2.5,7.63-6.26,7.63-1.85,0-3.17-.73-4.07-1.94h-.06v6.23h-4.58v-19.11ZM215.26,180.91c0-2.47-.93-4.1-2.89-4.1s-3,1.77-3,4.1,1.12,3.93,3.09,3.93c1.74,0,2.81-1.49,2.81-3.93Z"/>
      <path class="cls-4" d="M221.46,167.87h4.63v20.07h-4.63v-20.07Z"/>
      <path class="cls-4" d="M227.66,180.78c0-4.32,3.09-7.61,7.69-7.61s7.66,3.28,7.66,7.61-3.03,7.61-7.66,7.61-7.69-3.28-7.69-7.61ZM238.39,180.78c0-2.61-1.07-4.38-3.06-4.38s-3.03,1.77-3.03,4.38,1.04,4.35,3.03,4.35,3.06-1.74,3.06-4.35Z"/>
      <path class="cls-4" d="M244.56,173.56h4.38v2.24h.08c1.01-1.71,2.19-2.47,3.93-2.47.42,0,.7.03.9.11v3.93h-.11c-2.81-.39-4.6.98-4.6,4.1v6.46h-4.57v-14.37Z"/>
      <path class="cls-4" d="M254.38,180.72c0-4.29,3-7.58,7.38-7.58,2.05,0,3.68.67,4.91,1.8,1.71,1.57,2.55,4.07,2.53,6.99h-10.33c.28,1.94,1.35,3.14,3.23,3.14,1.21,0,1.99-.53,2.39-1.43h4.46c-.31,1.29-1.15,2.53-2.41,3.39-1.21.84-2.67,1.32-4.49,1.32-4.74,0-7.66-3.28-7.66-7.63ZM264.57,179.2c-.17-1.71-1.23-2.81-2.72-2.81-1.74,0-2.64,1.1-2.95,2.81h5.67Z"/>
      <path class="cls-4" d="M270.4,183.22h4.8v4.71h-4.8v-4.71Z"/>
      <path class="cls-4" d="M281.83,167.87h9.6c3.99,0,7.02,2.05,7.02,5.78,0,2.33-1.15,4.04-3.48,4.86v.08c1.74.59,2.64,1.68,2.92,3.68.42,2.64.14,5.16.84,5.42v.25h-4.83c-.53-.31-.45-2.67-.76-4.66-.25-1.85-1.21-2.86-3.34-2.86h-3v7.52h-4.97v-20.07ZM290.53,176.73c1.96,0,2.97-.93,2.97-2.44s-.95-2.5-2.86-2.5h-3.85v4.94h3.73Z"/>
      <path class="cls-4" d="M299.59,180.72c0-4.29,3-7.58,7.38-7.58,2.05,0,3.68.67,4.91,1.8,1.71,1.57,2.55,4.07,2.53,6.99h-10.33c.28,1.94,1.35,3.14,3.23,3.14,1.21,0,1.99-.53,2.39-1.43h4.46c-.31,1.29-1.15,2.53-2.41,3.39-1.21.84-2.67,1.32-4.49,1.32-4.74,0-7.66-3.28-7.66-7.63ZM309.78,179.2c-.17-1.71-1.23-2.81-2.72-2.81-1.74,0-2.64,1.1-2.95,2.81h5.67Z"/>
      <path class="cls-4" d="M315.95,173.56h4.38v1.74h.08c.98-1.29,2.39-2.16,4.35-2.16,3.82,0,6.15,3.28,6.15,7.61,0,4.66-2.5,7.63-6.26,7.63-1.85,0-3.17-.73-4.07-1.94h-.06v6.23h-4.58v-19.11ZM326.28,180.91c0-2.47-.93-4.1-2.89-4.1s-3,1.77-3,4.1,1.12,3.93,3.09,3.93c1.74,0,2.81-1.49,2.81-3.93Z"/>
      <path class="cls-4" d="M331.81,180.72c0-4.29,3-7.58,7.38-7.58,2.05,0,3.68.67,4.91,1.8,1.71,1.57,2.55,4.07,2.53,6.99h-10.33c.28,1.94,1.35,3.14,3.23,3.14,1.21,0,1.99-.53,2.39-1.43h4.46c-.31,1.29-1.15,2.53-2.41,3.39-1.21.84-2.67,1.32-4.49,1.32-4.74,0-7.66-3.28-7.66-7.63ZM341.99,179.2c-.17-1.71-1.24-2.81-2.72-2.81-1.74,0-2.64,1.1-2.95,2.81h5.67Z"/>
      <path class="cls-4" d="M347.49,183.92c0-3.17,2.53-4.13,5.5-4.52,2.69-.34,3.65-.62,3.65-1.6,0-.93-.59-1.54-1.96-1.54-1.46,0-2.19.65-2.33,1.85h-4.21c.11-2.67,2.16-4.94,6.51-4.94,2.16,0,3.62.39,4.66,1.18,1.23.9,1.82,2.3,1.82,4.1v7.24c0,1.15.11,1.8.51,2.05v.2h-4.43c-.22-.31-.37-.87-.48-1.6h-.06c-.84,1.21-2.1,1.97-4.27,1.97-2.86,0-4.91-1.54-4.91-4.38ZM356.75,182.8v-1.71c-.59.31-1.43.53-2.36.76-1.77.39-2.5.84-2.5,1.94,0,1.15.84,1.6,1.97,1.6,1.71,0,2.89-1.04,2.89-2.58Z"/>
      <path class="cls-4" d="M364.19,184.14v-7.72h-1.91v-2.86h1.91v-4.55h4.46v4.55h2.61v2.86h-2.61v6.74c0,1.12.62,1.4,1.6,1.4.39,0,.84-.03,1.01-.03v3.34c-.39.11-1.26.22-2.5.22-2.67,0-4.58-.87-4.58-3.96Z"/>
      <path class="cls-4" d="M373,183.22h4.8v4.71h-4.8v-4.71Z"/>
    </g>
    <g id="Bus">
      <path class="cls-2" d="M387.99,189.62c-.16-.31-.22-1.95-.18-4.84l.07-4.37,1.83-5.08c1.01-2.78,1.83-5.33,1.83-5.66,0-.36-.18-.69-.44-.87-.34-.2-.44-.51-.44-1.27v-1h32.96c25.08,0,33.1.07,33.54.27.32.13.72.53.89.84.17.33.96,2.91,1.76,5.75l1.45,5.13v4.91c0,5.35-.11,5.91-1.27,6.39-.42.18-2.15.22-5.39.2l-4.77-.07-.08-.56c-.04-.31-.35-1.15-.69-1.91-.66-1.44-1.93-2.69-3.47-3.35-1.11-.49-3.89-.49-4.98-.02-1.94.82-3.75,3.09-4.11,5.11l-.15.84-12.91-.07-12.9-.04-.16-.93c-.34-2-1.87-3.89-3.93-4.8-1.21-.53-3.47-.62-4.75-.2-2.02.71-4,2.97-4.34,4.95l-.16.98-4.48.07c-4.33.04-4.49.04-4.72-.4h0ZM400.67,178.8c.24-.29.3-1.38.3-4.91,0-4.22-.03-4.55-.43-4.84-.33-.24-1.24-.31-3.8-.31-2.93,0-3.41.04-3.72.38-.41.47-3.27,8.15-3.27,8.79,0,.24.17.62.37.87.33.36.8.4,5.3.4s4.97-.04,5.24-.38h0ZM412,178.8c.23-.2.4-.67.4-1.04,0-.98-2.33-8.59-2.69-8.81-.17-.11-1.71-.2-3.43-.2-4.17,0-3.95-.24-4.05,4.62-.08,4,.02,4.95.54,5.46.53.53,8.64.51,9.23-.02ZM423.33,178.8c.22-.2.4-.56.4-.8,0-.78-2.26-8.48-2.61-8.88-.31-.33-.82-.38-4.46-.38-5.52,0-5.51-.02-4.24,4.4,1.09,3.82,1.58,5.24,1.94,5.64.3.36.81.4,4.45.4s4.17-.07,4.52-.38h0ZM434.74,178.63c.34-.51.3-.75-.89-4.93-.76-2.71-1.39-4.51-1.62-4.68-.27-.2-1.53-.27-4.42-.27-4.49,0-4.75.07-4.75,1.38,0,.89,1.93,7.88,2.36,8.55.31.49.4.51,4.64.51h4.32l.36-.56ZM445.89,178.92c.15-.16.27-.6.27-1.02,0-1.13-2.18-8.55-2.6-8.88-.26-.2-1.53-.27-4.43-.27-3.77,0-4.1.02-4.51.44-.24.24-.44.53-.44.67,0,.53,2.29,8.37,2.58,8.81.31.49.4.51,4.6.51,3.03,0,4.36-.09,4.54-.27ZM457.07,178.8c.59-.53.51-1.24-.61-5.24-1.04-3.66-1.3-4.35-1.73-4.66-.13-.09-2.08-.16-4.33-.16-3.5,0-4.15.04-4.5.36-.22.2-.41.6-.41.87,0,.69,2.2,8.13,2.58,8.7.31.49.41.51,4.46.51,3.54,0,4.2-.07,4.55-.38h0Z"/>
      <ellipse class="cls-2" cx="403.81" cy="190.28" rx="4.51" ry="4.61" color-rendering="auto" image-rendering="auto" shape-rendering="auto"/>
      <ellipse class="cls-2" cx="443.17" cy="190.28" rx="4.51" ry="4.61" color-rendering="auto" image-rendering="auto" shape-rendering="auto"/>
    </g>
    <g id="Mountains">
      <polygon class="cls-2" points="52.74 68.81 114.49 14.48 127.55 23.83 154.72 5.12 180.12 35.47 200.41 45.53 220.35 31.59 259.16 79.75 233.22 53.11 237.99 64.76 219.82 38.82 209.23 53.99 210.64 44.02 185.41 60.7 198.47 47.11 188.41 42.44 193.35 47.47 183.83 42.44 177.12 38.12 154.36 8.48 147.84 16.06 152.6 14.48 144.84 22.94 146.42 41.64 141.13 24.71 130.02 34.41 121.37 42.44 118.02 52.76 117.84 40.94 131.78 26.65 117.49 34.41 124.02 27 114.31 16.95 100.91 34.94 112.2 28.24 93.5 51.88 95.97 44.02 78.15 60.35 85.03 49.58 52.74 68.81"/>
      <polygon class="cls-2" points="138.66 31.06 126.31 41.47 124.02 49.23 138.66 31.06"/>
      <polygon class="cls-2" points="156.04 18.71 166.01 38.12 160.36 44.02 169.18 44.02 161.77 56.11 176.24 45.7 156.04 18.71"/>
    </g>
  </g>
</svg>